<svg version="1.1" id="Layer_1" xmlns="http://www.w3.org/2000/svg" xmlns:xlink="http://www.w3.org/1999/xlink" x="0px" y="0px"
	 width="100%" viewBox="0 0 1000 500" enable-background="new 0 0 1000 500" xml:space="preserve">
<path fill="#FFFFFF" opacity="1.000000" stroke="none" 
	d="
M592.000000,501.000000 
	C394.699432,501.000000 197.898895,501.000000 1.049170,501.000000 
	C1.049170,334.393890 1.049170,167.787750 1.049170,1.090803 
	C334.217255,1.090803 667.434570,1.090803 1000.825928,1.090803 
	C1000.825928,167.666519 1000.825928,334.333252 1000.825928,501.000000 
	C864.787659,501.000000 728.643860,501.000000 592.000000,501.000000 
M80.062325,118.534698 
	C76.328827,121.921814 72.595329,125.308929 68.261192,129.022217 
	C63.835312,135.012848 59.409431,141.003479 54.445789,147.422562 
	C51.191463,155.573654 47.937141,163.724747 44.272568,172.506210 
	C40.153442,188.210236 39.993599,204.005554 44.155682,219.647400 
	C46.353828,227.908447 49.672096,235.871460 52.380283,244.759323 
	C53.255344,248.798050 53.971622,252.878983 55.031799,256.868530 
	C60.936626,279.088928 72.754150,297.278656 92.225182,310.982391 
	C100.816078,315.248169 109.406975,319.513947 118.677727,324.137756 
	C130.192047,327.752014 141.893631,329.764038 154.790131,328.467468 
	C170.816101,327.380554 185.778809,330.738678 199.885513,338.547577 
	C205.670349,341.749847 211.824173,344.509094 218.110962,346.537506 
	C234.454407,351.810547 251.091614,353.876770 268.791931,349.054138 
	C273.311859,347.427094 277.831757,345.800049 283.037964,344.088043 
	C286.719116,341.796631 290.400238,339.505188 294.741821,337.024506 
	C298.730408,332.748444 302.718964,328.472382 307.199341,323.793274 
	C309.359100,319.584625 311.518890,315.375946 314.068420,310.590881 
	C315.055420,305.729736 316.042450,300.868591 317.417389,295.308258 
	C317.262360,291.205627 317.107361,287.102966 317.072083,282.165009 
	C315.941284,277.446960 314.810516,272.728912 313.688385,267.291351 
	C309.290131,259.146027 305.665283,250.439102 300.274200,243.014709 
	C294.975189,235.717148 287.883057,229.721634 282.010681,222.537018 
	C284.269440,220.837448 286.528198,219.137878 289.374786,217.188751 
	C295.261871,210.131790 301.148956,203.074814 307.621643,195.648544 
	C312.518677,187.044769 316.174469,178.029190 316.993744,167.088531 
	C317.790375,158.064453 316.728729,149.326355 312.964325,140.261368 
	C311.617584,137.415619 310.600861,134.349869 308.873108,131.758148 
	C291.477264,105.663246 265.953156,97.109291 235.152695,98.112831 
	C225.760956,100.058243 216.369232,102.003654 206.162399,103.940811 
	C194.852188,106.800262 183.444916,106.540314 171.314697,104.650192 
	C168.606049,103.934250 165.897369,103.218506 163.188782,102.502335 
	C150.273483,99.087433 137.240387,97.775536 123.216858,100.199478 
	C113.016129,103.726555 102.815407,107.253639 91.921776,110.838837 
	C88.189178,113.313789 84.456581,115.788734 80.062325,118.534698 
M829.458496,275.018463 
	C839.607117,267.489716 843.868774,257.370514 842.100220,244.947769 
	C840.289795,232.231216 832.457458,224.474930 820.121582,220.397171 
	C821.276184,219.804214 821.983276,219.390915 822.728760,219.065735 
	C834.158020,214.080521 840.069397,205.380264 839.825012,192.892090 
	C839.579956,180.371140 833.509766,171.312912 822.112488,166.301102 
	C817.938110,164.465469 813.179199,163.195129 808.648071,163.069595 
	C790.851318,162.576599 773.039062,162.638519 755.232422,162.525757 
	C754.801208,162.523026 754.367676,162.886749 753.947632,163.074020 
	C753.947632,202.708633 753.947632,242.235535 753.947632,281.860077 
	C772.387878,281.860077 790.549011,282.435120 808.640686,281.564758 
	C815.462280,281.236572 822.122986,277.562866 829.458496,275.018463 
M419.969879,215.379898 
	C430.091766,190.664230 418.118378,166.721451 392.205200,163.698410 
	C374.165558,161.593887 355.682159,163.293091 337.156708,163.293091 
	C337.156708,202.488144 337.156708,242.051132 337.156708,281.646362 
	C344.452515,281.646362 351.497070,281.646362 359.015686,281.646362 
	C359.015686,266.221436 359.015686,251.151489 359.015686,235.799072 
	C367.312408,235.799072 375.133911,236.019821 382.938660,235.752304 
	C398.351135,235.224045 411.847626,230.875687 419.969879,215.379898 
M512.683838,210.897934 
	C502.556061,196.496826 481.101074,191.178680 461.731995,198.041855 
	C448.171783,202.846725 438.577759,215.984589 440.109528,225.356995 
	C446.867798,225.356995 453.648041,225.356995 460.342560,225.356995 
	C464.759216,215.383408 473.267273,211.122437 483.407013,213.656876 
	C492.225159,215.860977 496.121887,221.673599 495.351013,231.993088 
	C487.936798,231.993088 480.445740,231.560272 473.030182,232.122681 
	C466.464172,232.620651 459.697937,233.400208 453.525818,235.524658 
	C442.726410,239.241837 436.724884,248.821701 437.235291,259.320679 
	C437.780029,270.525513 444.245239,279.044006 455.571777,282.127686 
	C471.728729,286.526428 486.296021,284.680420 496.776581,268.863068 
	C497.602386,273.689178 498.294556,277.734283 498.988434,281.789307 
	C505.208466,281.789307 511.148560,281.789307 517.227783,281.789307 
	C517.360718,280.959259 517.551025,280.323364 517.551514,279.687347 
	C517.563232,263.035034 517.949707,246.368347 517.344116,229.737930 
	C517.121643,223.626831 514.545227,217.601456 512.683838,210.897934 
M682.089172,196.469406 
	C665.458496,200.617172 655.134766,211.304932 654.465637,225.542725 
	C660.264282,225.542725 666.056030,225.444443 671.841736,225.588394 
	C674.355347,225.650925 675.474060,224.844070 676.533203,222.388672 
	C679.850281,214.698563 689.884888,211.158752 699.258057,213.929474 
	C707.372375,216.328064 710.934265,222.231522 709.861511,232.015167 
	C702.111694,232.015167 694.238647,231.369736 686.524841,232.201538 
	C679.203674,232.991013 671.618530,234.333176 664.929382,237.232071 
	C656.387146,240.934036 652.096375,248.611588 652.057617,258.127441 
	C652.018433,267.749237 656.178894,275.130890 664.640076,279.863464 
	C680.262512,288.601562 699.328918,284.655212 710.257446,270.525757 
	C710.575867,270.114014 711.154236,269.903290 711.718567,269.527466 
	C712.405334,273.808289 713.033569,277.724182 713.685242,281.786224 
	C719.898865,281.786224 725.816040,281.786224 732.098206,281.786224 
	C732.098206,263.458557 732.313416,245.344040 732.030029,227.237335 
	C731.803833,212.784149 723.771545,202.380997 710.035095,197.787247 
	C701.142578,194.813431 692.060852,194.678635 682.089172,196.469406 
M937.912964,259.201263 
	C937.302673,244.848633 936.692383,230.496002 936.059082,215.601471 
	C944.488831,215.601471 951.725525,215.601471 959.055542,215.601471 
	C959.055542,209.206604 959.055542,203.328064 959.055542,196.990555 
	C951.416992,196.990555 944.157410,196.990555 936.554810,196.990555 
	C936.554810,189.418289 936.554810,182.310638 936.554810,174.932098 
	C929.942261,174.932098 923.696777,174.932098 917.280823,174.932098 
	C916.394775,182.334747 915.530212,189.557495 914.610413,197.242310 
	C909.790161,197.242310 905.200134,197.242310 900.475464,197.242310 
	C900.475464,203.612915 900.475464,209.474396 900.475464,215.907059 
	C905.398254,215.907059 909.963867,215.907059 914.948425,215.907059 
	C914.948425,230.136383 914.698853,243.795135 915.029114,257.439850 
	C915.283569,267.956146 919.860046,276.013641 930.283691,279.796326 
	C939.611267,283.181244 949.219116,281.742218 958.616333,281.973511 
	C958.616333,275.415527 958.616333,269.516357 958.616333,263.256622 
	C954.789856,263.256622 951.244446,263.687958 947.860718,263.133240 
	C944.589783,262.596985 941.485291,261.044983 937.912964,259.201263 
M590.965088,241.499435 
	C591.000122,246.662262 590.779724,251.842255 591.125305,256.984222 
	C591.774231,266.641052 595.031250,274.818970 604.718201,279.034332 
	C614.574158,283.323212 624.813538,281.742218 634.706848,281.921814 
	C634.706848,275.337372 634.706848,269.437439 634.706848,263.293274 
	C632.319336,263.293274 630.338501,263.308655 628.358154,263.288940 
	C626.360168,263.269073 624.357605,263.289673 622.365540,263.161285 
	C615.567627,262.723267 613.058655,260.294098 612.971130,253.535110 
	C612.828979,242.544037 612.911133,231.550049 612.899170,220.557297 
	C612.897461,218.986786 612.898865,217.416275 612.898865,215.403366 
	C620.959473,215.403366 628.220886,215.403366 635.493347,215.403366 
	C635.493347,209.199158 635.493347,203.450043 635.493347,197.087082 
	C627.836365,197.087082 620.459290,197.087082 612.809326,197.087082 
	C612.809326,189.356049 612.809326,182.239670 612.809326,174.936691 
	C606.245972,174.936691 599.991516,174.936691 593.521301,174.936691 
	C592.630676,182.393982 591.769104,189.608032 590.851990,197.286835 
	C586.023560,197.286835 581.446289,197.286835 576.780762,197.286835 
	C576.780762,203.676407 576.780762,209.549545 576.780762,215.775452 
	C581.622498,215.775452 586.066589,215.775452 590.965088,215.775452 
	C590.965088,224.254410 590.965088,232.377060 590.965088,241.499435 
M560.138550,182.500031 
	C560.138550,174.757019 560.138550,167.014008 560.138550,159.318359 
	C552.515686,159.318359 545.604431,159.318359 538.523926,159.318359 
	C538.523926,200.275986 538.523926,240.953812 538.523926,281.669830 
	C545.865784,281.669830 552.917908,281.669830 560.138550,281.669830 
	C560.138550,248.720917 560.138550,216.110474 560.138550,182.500031 
M863.953735,197.223083 
	C860.199646,197.197815 861.424500,200.077072 861.419495,201.918762 
	C861.350830,227.209610 861.369080,252.500687 861.385010,277.791718 
	C861.385803,279.082336 861.558899,280.372833 861.652100,281.669281 
	C868.958984,281.669281 875.986267,281.669281 882.998291,281.669281 
	C882.998291,253.419830 882.998291,225.511948 882.998291,197.219986 
	C876.794495,197.219986 870.834045,197.219986 863.953735,197.223083 
M885.632446,168.282471 
	C885.074097,167.085968 884.659851,165.792694 883.932617,164.709579 
	C880.614075,159.766983 873.840698,157.824783 867.466797,159.890381 
	C861.695923,161.760559 858.602173,166.227921 858.864319,172.312454 
	C859.100220,177.787598 862.836975,182.299286 868.313599,183.721344 
	C878.531494,186.374527 886.329163,179.852463 885.632446,168.282471 
z"/>
<path fill="#0C724E" opacity="1.000000" stroke="none" 
	d="
M829.157715,275.216370 
	C822.122986,277.562866 815.462280,281.236572 808.640686,281.564758 
	C790.549011,282.435120 772.387878,281.860077 753.947632,281.860077 
	C753.947632,242.235535 753.947632,202.708633 753.947632,163.074020 
	C754.367676,162.886749 754.801208,162.523026 755.232422,162.525757 
	C773.039062,162.638519 790.851318,162.576599 808.648071,163.069595 
	C813.179199,163.195129 817.938110,164.465469 822.112488,166.301102 
	C833.509766,171.312912 839.579956,180.371140 839.825012,192.892090 
	C840.069397,205.380264 834.158020,214.080521 822.728760,219.065735 
	C821.983276,219.390915 821.276184,219.804214 820.121582,220.397171 
	C832.457458,224.474930 840.289795,232.231216 842.100220,244.947769 
	C843.868774,257.370514 839.607117,267.489716 829.157715,275.216370 
M818.765808,254.849701 
	C823.298767,241.728760 817.600952,231.099197 804.117737,229.573639 
	C794.807251,228.520218 785.281189,229.371307 775.691528,229.371307 
	C775.691528,240.991730 775.691528,252.402084 775.691528,263.934143 
	C785.623291,263.934143 795.281250,264.281525 804.897949,263.802063 
	C810.544067,263.520569 815.429871,260.814972 818.765808,254.849701 
M782.612915,180.049500 
	C780.348816,180.049500 778.084717,180.049500 775.709534,180.049500 
	C775.709534,191.194061 775.709534,201.750275 775.709534,212.165878 
	C785.272156,212.165878 794.573975,212.775787 803.756836,211.991882 
	C812.684692,211.229767 817.288330,205.241669 817.377319,196.504776 
	C817.463989,187.998596 813.111206,182.147568 804.446533,180.916122 
	C797.589294,179.941559 790.544250,180.289093 782.612915,180.049500 
z"/>
<path fill="#0D734E" opacity="1.000000" stroke="none" 
	d="
M419.820312,215.724854 
	C411.847626,230.875687 398.351135,235.224045 382.938660,235.752304 
	C375.133911,236.019821 367.312408,235.799072 359.015686,235.799072 
	C359.015686,251.151489 359.015686,266.221436 359.015686,281.646362 
	C351.497070,281.646362 344.452515,281.646362 337.156708,281.646362 
	C337.156708,242.051132 337.156708,202.488144 337.156708,163.293091 
	C355.682159,163.293091 374.165558,161.593887 392.205200,163.698410 
	C418.118378,166.721451 430.091766,190.664230 419.820312,215.724854 
M371.485260,180.179337 
	C367.377472,180.179337 363.269653,180.179337 359.009949,180.179337 
	C359.009949,193.035614 359.009949,205.283600 359.009949,218.404175 
	C368.825592,217.952988 378.488678,218.168610 387.948395,216.885056 
	C397.074005,215.646835 401.369476,208.620758 401.103455,198.082077 
	C400.864075,188.600128 395.864532,182.341583 386.891998,181.025238 
	C382.145477,180.328888 377.281158,180.435364 371.485260,180.179337 
z"/>
<path fill="#0F744F" opacity="1.000000" stroke="none" 
	d="
M512.863159,211.217453 
	C514.545227,217.601456 517.121643,223.626831 517.344116,229.737930 
	C517.949707,246.368347 517.563232,263.035034 517.551514,279.687347 
	C517.551025,280.323364 517.360718,280.959259 517.227783,281.789307 
	C511.148560,281.789307 505.208466,281.789307 498.988434,281.789307 
	C498.294556,277.734283 497.602386,273.689178 496.776581,268.863068 
	C486.296021,284.680420 471.728729,286.526428 455.571777,282.127686 
	C444.245239,279.044006 437.780029,270.525513 437.235291,259.320679 
	C436.724884,248.821701 442.726410,239.241837 453.525818,235.524658 
	C459.697937,233.400208 466.464172,232.620651 473.030182,232.122681 
	C480.445740,231.560272 487.936798,231.993088 495.351013,231.993088 
	C496.121887,221.673599 492.225159,215.860977 483.407013,213.656876 
	C473.267273,211.122437 464.759216,215.383408 460.342560,225.356995 
	C453.648041,225.356995 446.867798,225.356995 440.109528,225.356995 
	C438.577759,215.984589 448.171783,202.846725 461.731995,198.041855 
	C481.101074,191.178680 502.556061,196.496826 512.863159,211.217453 
M462.212311,250.840683 
	C458.383270,258.697479 461.128174,264.533447 469.584930,266.515686 
	C482.232117,269.480103 492.708984,261.051178 494.744598,246.199127 
	C486.473419,246.199127 478.193329,245.891251 469.961365,246.385437 
	C467.468811,246.535065 465.109497,248.904602 462.212311,250.840683 
z"/>
<path fill="#0D734E" opacity="1.000000" stroke="none" 
	d="
M682.492065,196.347351 
	C692.060852,194.678635 701.142578,194.813431 710.035095,197.787247 
	C723.771545,202.380997 731.803833,212.784149 732.030029,227.237335 
	C732.313416,245.344040 732.098206,263.458557 732.098206,281.786224 
	C725.816040,281.786224 719.898865,281.786224 713.685242,281.786224 
	C713.033569,277.724182 712.405334,273.808289 711.718567,269.527466 
	C711.154236,269.903290 710.575867,270.114014 710.257446,270.525757 
	C699.328918,284.655212 680.262512,288.601562 664.640076,279.863464 
	C656.178894,275.130890 652.018433,267.749237 652.057617,258.127441 
	C652.096375,248.611588 656.387146,240.934036 664.929382,237.232071 
	C671.618530,234.333176 679.203674,232.991013 686.524841,232.201538 
	C694.238647,231.369736 702.111694,232.015167 709.861511,232.015167 
	C710.934265,222.231522 707.372375,216.328064 699.258057,213.929474 
	C689.884888,211.158752 679.850281,214.698563 676.533203,222.388672 
	C675.474060,224.844070 674.355347,225.650925 671.841736,225.588394 
	C666.056030,225.444443 660.264282,225.542725 654.465637,225.542725 
	C655.134766,211.304932 665.458496,200.617172 682.492065,196.347351 
M708.317932,251.696228 
	C708.797302,249.862991 709.276672,248.029755 709.810364,245.988800 
	C701.570190,245.988800 693.922058,245.677429 686.311951,246.081711 
	C679.531311,246.441940 675.112915,250.958542 675.068054,256.544373 
	C675.022949,262.165314 679.393982,266.162872 686.388672,266.897736 
	C696.690125,267.980011 703.387512,263.512878 708.317932,251.696228 
z"/>
<path fill="#0F7450" opacity="1.000000" stroke="none" 
	d="
M938.110352,259.570221 
	C941.485291,261.044983 944.589783,262.596985 947.860718,263.133240 
	C951.244446,263.687958 954.789856,263.256622 958.616333,263.256622 
	C958.616333,269.516357 958.616333,275.415527 958.616333,281.973511 
	C949.219116,281.742218 939.611267,283.181244 930.283691,279.796326 
	C919.860046,276.013641 915.283569,267.956146 915.029114,257.439850 
	C914.698853,243.795135 914.948425,230.136383 914.948425,215.907059 
	C909.963867,215.907059 905.398254,215.907059 900.475464,215.907059 
	C900.475464,209.474396 900.475464,203.612915 900.475464,197.242310 
	C905.200134,197.242310 909.790161,197.242310 914.610413,197.242310 
	C915.530212,189.557495 916.394775,182.334747 917.280823,174.932098 
	C923.696777,174.932098 929.942261,174.932098 936.554810,174.932098 
	C936.554810,182.310638 936.554810,189.418289 936.554810,196.990555 
	C944.157410,196.990555 951.416992,196.990555 959.055542,196.990555 
	C959.055542,203.328064 959.055542,209.206604 959.055542,215.601471 
	C951.725525,215.601471 944.488831,215.601471 936.059082,215.601471 
	C936.692383,230.496002 937.302673,244.848633 938.110352,259.570221 
z"/>
<path fill="#0F744F" opacity="1.000000" stroke="none" 
	d="
M590.965088,240.999573 
	C590.965088,232.377060 590.965088,224.254410 590.965088,215.775452 
	C586.066589,215.775452 581.622498,215.775452 576.780762,215.775452 
	C576.780762,209.549545 576.780762,203.676407 576.780762,197.286835 
	C581.446289,197.286835 586.023560,197.286835 590.851990,197.286835 
	C591.769104,189.608032 592.630676,182.393982 593.521301,174.936691 
	C599.991516,174.936691 606.245972,174.936691 612.809326,174.936691 
	C612.809326,182.239670 612.809326,189.356049 612.809326,197.087082 
	C620.459290,197.087082 627.836365,197.087082 635.493347,197.087082 
	C635.493347,203.450043 635.493347,209.199158 635.493347,215.403366 
	C628.220886,215.403366 620.959473,215.403366 612.898865,215.403366 
	C612.898865,217.416275 612.897461,218.986786 612.899170,220.557297 
	C612.911133,231.550049 612.828979,242.544037 612.971130,253.535110 
	C613.058655,260.294098 615.567627,262.723267 622.365540,263.161285 
	C624.357605,263.289673 626.360168,263.269073 628.358154,263.288940 
	C630.338501,263.308655 632.319336,263.293274 634.706848,263.293274 
	C634.706848,269.437439 634.706848,275.337372 634.706848,281.921814 
	C624.813538,281.742218 614.574158,283.323212 604.718201,279.034332 
	C595.031250,274.818970 591.774231,266.641052 591.125305,256.984222 
	C590.779724,251.842255 591.000122,246.662262 590.965088,240.999573 
z"/>
<path fill="#0F744F" opacity="1.000000" stroke="none" 
	d="
M560.138550,183.000031 
	C560.138550,216.110474 560.138550,248.720917 560.138550,281.669830 
	C552.917908,281.669830 545.865784,281.669830 538.523926,281.669830 
	C538.523926,240.953812 538.523926,200.275986 538.523926,159.318359 
	C545.604431,159.318359 552.515686,159.318359 560.138550,159.318359 
	C560.138550,167.014008 560.138550,174.757019 560.138550,183.000031 
z"/>
<path fill="#047A4E" opacity="1.000000" stroke="none" 
	d="
M268.000000,349.000000 
	C251.091614,353.876770 234.454407,351.810547 218.110962,346.537506 
	C211.824173,344.509094 205.670349,341.749847 199.885513,338.547577 
	C185.778809,330.738678 170.816101,327.380554 154.406525,328.045898 
	C155.367554,325.375427 157.006729,323.248657 157.999802,320.853973 
	C160.646210,314.472443 165.444427,310.082733 171.493149,307.577332 
	C175.033585,306.110870 176.190720,303.940277 176.903763,300.793762 
	C177.194199,299.512146 177.630615,298.263580 178.356094,297.037506 
	C185.908234,300.761017 193.100876,304.454865 200.303375,308.129395 
	C203.523178,309.772064 206.762711,311.376038 210.297058,313.144653 
	C223.066284,321.027344 235.536087,328.755920 247.995377,336.501373 
	C254.672913,340.652557 261.332397,344.832825 268.000000,349.000000 
z"/>
<path fill="#0F7450" opacity="1.000000" stroke="none" 
	d="
M864.413696,197.221527 
	C870.834045,197.219986 876.794495,197.219986 882.998291,197.219986 
	C882.998291,225.511948 882.998291,253.419830 882.998291,281.669281 
	C875.986267,281.669281 868.958984,281.669281 861.652100,281.669281 
	C861.558899,280.372833 861.385803,279.082336 861.385010,277.791718 
	C861.369080,252.500687 861.350830,227.209610 861.419495,201.918762 
	C861.424500,200.077072 860.199646,197.197815 864.413696,197.221527 
z"/>
<path fill="#046E46" opacity="1.000000" stroke="none" 
	d="
M52.484642,243.969025 
	C49.672096,235.871460 46.353828,227.908447 44.155682,219.647400 
	C39.993599,204.005554 40.153442,188.210236 44.851128,172.248535 
	C50.245846,174.066574 50.407429,178.895309 52.098183,182.900101 
	C52.781250,184.517975 54.607754,185.653137 55.935707,187.404083 
	C55.667374,189.856537 55.377243,191.912842 55.061836,194.423859 
	C55.431374,210.882996 58.752186,226.219849 67.167938,239.935120 
	C70.969353,246.130371 76.306046,251.383560 81.100883,257.353241 
	C83.173943,259.417603 85.092316,261.192841 87.196945,263.241943 
	C89.929283,265.313721 92.475357,267.111664 95.299011,269.083557 
	C97.048378,270.192932 98.520180,271.128448 100.002151,272.465454 
	C101.342636,278.242218 102.672928,283.617432 103.672714,288.853271 
	C98.225746,286.146118 93.109299,283.578339 87.690750,280.858032 
	C77.757484,274.342987 69.116829,266.878113 62.156704,257.617645 
	C58.807823,253.161957 55.701054,248.524277 52.484642,243.969025 
z"/>
<path fill="#026C4C" opacity="1.000000" stroke="none" 
	d="
M178.000610,297.000000 
	C177.630615,298.263580 177.194199,299.512146 176.903763,300.793762 
	C176.190720,303.940277 175.033585,306.110870 171.493149,307.577332 
	C165.444427,310.082733 160.646210,314.472443 157.999802,320.853973 
	C157.006729,323.248657 155.367554,325.375427 154.014160,327.945618 
	C141.893631,329.764038 130.192047,327.752014 118.337700,323.505280 
	C118.339722,316.275940 118.630898,309.675873 119.046486,303.083649 
	C119.237839,300.048248 119.672768,297.028229 120.431656,293.999603 
	C129.231583,294.332275 137.689880,295.588379 145.938171,294.758087 
	C155.389389,293.806702 164.654205,291.003540 174.034027,289.355469 
	C175.378906,292.137390 176.689758,294.568695 178.000610,297.000000 
z"/>
<path fill="#11824A" opacity="1.000000" stroke="none" 
	d="
M268.395966,349.027069 
	C261.332397,344.832825 254.672913,340.652557 247.995377,336.501373 
	C235.536087,328.755920 223.066284,321.027344 210.261078,312.780579 
	C209.241165,310.760315 208.527451,309.265259 207.886765,307.739563 
	C205.345840,301.688721 203.570541,295.553619 206.413116,288.999237 
	C208.220535,288.999786 209.610703,288.999908 211.036530,289.350525 
	C216.803955,295.723236 222.484756,301.795441 228.306427,307.729431 
	C229.618240,309.066559 231.421265,309.921753 232.998474,311.398804 
	C232.307007,315.385437 234.825424,316.789307 237.355286,318.149139 
	C246.708496,323.176697 256.170563,328.011993 265.395630,333.263947 
	C271.227631,336.584198 276.711609,340.515686 282.351685,344.173004 
	C277.831757,345.800049 273.311859,347.427094 268.395966,349.027069 
z"/>
<path fill="#2F9944" opacity="1.000000" stroke="none" 
	d="
M306.707520,324.196320 
	C302.718964,328.472382 298.730408,332.748444 294.384766,336.733459 
	C292.934723,334.926727 292.175903,332.809509 290.697266,331.988007 
	C275.082275,323.312805 259.374603,314.803101 243.642426,306.340790 
	C238.156769,303.390045 237.981964,303.183258 240.680710,297.679108 
	C241.118362,296.786499 241.554260,295.893066 242.128357,294.691956 
	C243.503067,292.584290 244.740372,290.784668 246.130371,289.290283 
	C248.828262,291.385284 251.239288,293.414825 253.940414,294.925873 
	C271.494293,304.745514 289.111237,314.452484 306.707520,324.196320 
z"/>
<path fill="#42A540" opacity="1.000000" stroke="none" 
	d="
M306.953430,323.994812 
	C289.111237,314.452484 271.494293,304.745514 253.940414,294.925873 
	C251.239288,293.414825 248.828262,291.385284 246.175018,288.933411 
	C248.032120,284.847809 249.997253,281.424255 252.337112,278.004761 
	C253.353638,278.143982 254.076767,278.132141 254.625504,278.435608 
	C274.319977,289.327911 293.998199,300.249664 313.678650,311.167297 
	C311.518890,315.375946 309.359100,319.584625 306.953430,323.994812 
z"/>
<path fill="#61BA3F" opacity="1.000000" stroke="none" 
	d="
M235.996445,98.266792 
	C265.953156,97.109291 291.477264,105.663246 308.873108,131.758148 
	C310.600861,134.349869 311.617584,137.415619 312.579529,140.630768 
	C308.301147,139.414825 304.457825,137.682693 300.486755,136.323730 
	C299.098541,135.848648 297.395752,136.292892 295.568237,136.104340 
	C289.425476,128.302277 282.274628,122.203438 273.349823,118.634117 
	C266.958008,116.077835 260.254883,114.299896 253.961090,111.998383 
	C253.654434,110.881386 253.301712,109.567360 252.462418,109.063011 
	C248.257401,106.536034 243.867828,104.315659 239.669174,101.778877 
	C238.254150,100.923935 237.210068,99.455070 235.996445,98.266792 
z"/>
<path fill="#52B03D" opacity="1.000000" stroke="none" 
	d="
M313.873535,310.879089 
	C293.998199,300.249664 274.319977,289.327911 254.625504,278.435608 
	C254.076767,278.132141 253.353638,278.143982 252.388306,277.647614 
	C254.361771,273.189911 256.658752,269.093414 259.279297,265.131958 
	C273.340240,272.811005 287.047546,280.410522 300.830200,287.870850 
	C306.141785,290.745911 311.624634,293.304596 317.029449,296.007446 
	C316.042450,300.868591 315.055420,305.729736 313.873535,310.879089 
z"/>
<path fill="#1E8E48" opacity="1.000000" stroke="none" 
	d="
M241.990967,295.000000 
	C241.554260,295.893066 241.118362,296.786499 240.680710,297.679108 
	C237.981964,303.183258 238.156769,303.390045 243.642426,306.340790 
	C259.374603,314.803101 275.082275,323.312805 290.697266,331.988007 
	C292.175903,332.809509 292.934723,334.926727 294.054535,336.828064 
	C290.400238,339.505188 286.719116,341.796631 282.694824,344.130524 
	C276.711609,340.515686 271.227631,336.584198 265.395630,333.263947 
	C256.170563,328.011993 246.708496,323.176697 237.355286,318.149139 
	C234.825424,316.789307 232.307007,315.385437 233.155746,311.050110 
	C234.208267,305.533661 235.103821,300.765930 236.378601,295.956299 
	C238.502213,295.609558 240.246597,295.304779 241.990967,295.000000 
z"/>
<path fill="#025E51" opacity="1.000000" stroke="none" 
	d="
M119.997253,294.001221 
	C119.672768,297.028229 119.237839,300.048248 119.046486,303.083649 
	C118.630898,309.675873 118.339722,316.275940 117.997772,323.326233 
	C109.406975,319.513947 100.816078,315.248169 92.077927,310.241150 
	C90.618057,300.003448 89.305458,290.506989 87.992844,281.010559 
	C93.109299,283.578339 98.225746,286.146118 104.013603,289.002716 
	C109.789093,290.861420 114.893173,292.431305 119.997253,294.001221 
z"/>
<path fill="#04565A" opacity="1.000000" stroke="none" 
	d="
M87.690750,280.858032 
	C89.305458,290.506989 90.618057,300.003448 91.889221,309.976440 
	C72.754150,297.278656 60.936626,279.088928 55.031799,256.868530 
	C53.971622,252.878983 53.255344,248.798050 52.432465,244.364166 
	C55.701054,248.524277 58.807823,253.161957 62.156704,257.617645 
	C69.116829,266.878113 77.757484,274.342987 87.690750,280.858032 
z"/>
<path fill="#76C838" opacity="1.000000" stroke="none" 
	d="
M281.577789,223.154755 
	C287.883057,229.721634 294.975189,235.717148 300.274200,243.014709 
	C305.665283,250.439102 309.290131,259.146027 313.328400,267.642029 
	C298.612701,260.323792 284.257019,252.654877 269.943604,244.662994 
	C270.041626,243.909714 270.097412,243.479385 270.400635,242.818192 
	C273.781372,236.712418 276.914642,230.837524 280.182373,224.756683 
	C280.737152,224.085434 281.157471,223.620087 281.577789,223.154755 
z"/>
<path fill="#61BA3F" opacity="1.000000" stroke="none" 
	d="
M317.223419,295.657837 
	C311.624634,293.304596 306.141785,290.745911 300.830200,287.870850 
	C287.047546,280.410522 273.340240,272.811005 259.332703,264.780273 
	C260.687897,261.526520 262.313324,258.759552 264.319946,255.999390 
	C271.307404,259.342682 277.942657,262.623169 284.513336,266.028259 
	C295.348328,271.643219 306.141510,277.338776 316.952332,283.000336 
	C317.107361,287.102966 317.262360,291.205627 317.223419,295.657837 
z"/>
<path fill="#42A540" opacity="1.000000" stroke="none" 
	d="
M123.991966,100.306061 
	C137.240387,97.775536 150.273483,99.087433 163.188782,102.502335 
	C165.897369,103.218506 168.606049,103.934250 171.695007,105.178864 
	C177.181198,109.039543 182.341461,112.292709 187.358994,115.752853 
	C188.815948,116.757576 189.864426,118.354652 190.710190,119.735657 
	C187.884064,119.902748 185.447891,120.014359 182.602417,120.031754 
	C176.933594,119.156715 171.658173,118.469116 166.418121,117.574432 
	C157.261795,116.011101 148.127197,114.320442 138.977783,112.329391 
	C137.217651,110.433746 135.541840,108.789146 133.691345,107.372780 
	C130.515686,104.942139 127.230919,102.654015 123.991966,100.306061 
z"/>
<path fill="#6AC039" opacity="1.000000" stroke="none" 
	d="
M317.012207,282.582672 
	C306.141510,277.338776 295.348328,271.643219 284.513336,266.028259 
	C277.942657,262.623169 271.307404,259.342682 264.310791,255.741638 
	C263.890533,255.307693 263.860657,255.138336 263.912048,254.623749 
	C265.962646,251.180969 267.931976,248.083450 269.901306,244.985931 
	C284.257019,252.654877 298.612701,260.323792 313.324066,268.001801 
	C314.810516,272.728912 315.941284,277.446960 317.012207,282.582672 
z"/>
<path fill="#0D734E" opacity="1.000000" stroke="none" 
	d="
M885.732788,168.675156 
	C886.329163,179.852463 878.531494,186.374527 868.313599,183.721344 
	C862.836975,182.299286 859.100220,177.787598 858.864319,172.312454 
	C858.602173,166.227921 861.695923,161.760559 867.466797,159.890381 
	C873.840698,157.824783 880.614075,159.766983 883.932617,164.709579 
	C884.659851,165.792694 885.074097,167.085968 885.732788,168.675156 
z"/>
<path fill="#399847" opacity="1.000000" stroke="none" 
	d="
M123.604416,100.252769 
	C127.230919,102.654015 130.515686,104.942139 133.691345,107.372780 
	C135.541840,108.789146 137.217651,110.433746 138.523895,112.414093 
	C132.385971,113.578659 126.696205,114.304787 120.610367,114.978188 
	C114.513695,116.726944 108.813095,118.528419 103.060684,119.961105 
	C99.544144,116.655113 96.079407,113.717918 92.614677,110.780724 
	C102.815407,107.253639 113.016129,103.726555 123.604416,100.252769 
z"/>
<path fill="#59B43F" opacity="1.000000" stroke="none" 
	d="
M235.574570,98.189812 
	C237.210068,99.455070 238.254150,100.923935 239.669174,101.778877 
	C243.867828,104.315659 248.257401,106.536034 252.462418,109.063011 
	C253.301712,109.567360 253.654434,110.881386 253.521484,112.016754 
	C241.874435,112.812202 230.937424,113.412956 219.952332,113.671967 
	C218.549637,112.192795 217.264252,110.957649 215.825821,109.938499 
	C212.920364,107.879929 209.931793,105.938690 206.977493,103.949066 
	C216.369232,102.003654 225.760956,100.058243 235.574570,98.189812 
z"/>
<path fill="#4FAE42" opacity="1.000000" stroke="none" 
	d="
M206.569946,103.944939 
	C209.931793,105.938690 212.920364,107.879929 215.825821,109.938499 
	C217.264252,110.957649 218.549637,112.192795 219.589325,113.759636 
	C209.882980,116.019432 200.491562,117.849800 191.100159,119.680176 
	C189.864426,118.354652 188.815948,116.757576 187.358994,115.752853 
	C182.341461,112.292709 177.181198,109.039543 172.036606,105.355759 
	C183.444916,106.540314 194.852188,106.800262 206.569946,103.944939 
z"/>
<path fill="#047A4E" opacity="1.000000" stroke="none" 
	d="
M55.913906,187.007965 
	C54.607754,185.653137 52.781250,184.517975 52.098183,182.900101 
	C50.407429,178.895309 50.245846,174.066574 45.056252,171.933350 
	C47.937141,163.724747 51.191463,155.573654 55.061745,147.244141 
	C57.090305,148.181534 58.604515,149.192383 59.891182,150.438263 
	C61.717285,152.206482 63.375866,154.147705 65.039948,156.365311 
	C64.295166,158.476883 63.616463,160.238159 62.673988,162.225861 
	C61.586433,164.962830 60.762650,167.473328 59.673637,170.232910 
	C58.617336,173.652008 57.826263,176.822021 57.008392,180.386536 
	C56.625702,182.856674 56.269802,184.932312 55.913906,187.007965 
z"/>
<path fill="#4FAE42" opacity="1.000000" stroke="none" 
	d="
M316.792633,168.005814 
	C316.174469,178.029190 312.518677,187.044769 307.011169,195.695709 
	C302.659576,193.839966 298.918488,191.937073 295.252869,189.710114 
	C296.198059,187.589066 297.067780,185.792038 298.057373,183.639709 
	C299.900116,176.527176 301.622925,169.769974 303.702423,163.018555 
	C308.303619,164.684830 312.548126,166.345322 316.792633,168.005814 
z"/>
<path fill="#59B43F" opacity="1.000000" stroke="none" 
	d="
M316.893188,167.547180 
	C312.548126,166.345322 308.303619,164.684830 303.669373,162.563354 
	C303.795807,152.642181 300.241943,144.356857 295.836609,136.317291 
	C297.395752,136.292892 299.098541,135.848648 300.486755,136.323730 
	C304.457825,137.682693 308.301147,139.414825 312.586853,141.001083 
	C316.728729,149.326355 317.790375,158.064453 316.893188,167.547180 
z"/>
<path fill="#399847" opacity="1.000000" stroke="none" 
	d="
M295.177368,190.034164 
	C298.918488,191.937073 302.659576,193.839966 306.718384,195.880356 
	C301.148956,203.074814 295.261871,210.131790 288.712708,217.125671 
	C284.608704,214.496872 281.166748,211.931183 277.885956,209.110992 
	C280.053131,206.917908 282.059174,204.979279 284.362915,202.888855 
	C288.166229,198.502747 291.671814,194.268463 295.177368,190.034164 
z"/>
<path fill="#309148" opacity="1.000000" stroke="none" 
	d="
M277.724823,209.365479 
	C281.166748,211.931183 284.608704,214.496872 288.418762,217.250458 
	C286.528198,219.137878 284.269440,220.837448 281.794250,222.845886 
	C281.157471,223.620087 280.737152,224.085434 279.819885,224.795975 
	C274.549042,227.356888 269.775085,229.672592 264.850342,231.682510 
	C263.121429,230.243469 261.540253,229.114456 259.965942,227.975952 
	C257.626282,226.283951 255.291504,224.585220 253.198853,222.639679 
	C258.663544,219.613327 263.884064,216.836655 269.469055,214.044312 
	C272.463959,212.474258 275.094391,210.919861 277.724823,209.365479 
z"/>
<path fill="#11824A" opacity="1.000000" stroke="none" 
	d="
M65.106033,156.014999 
	C63.375866,154.147705 61.717285,152.206482 59.891182,150.438263 
	C58.604515,149.192383 57.090305,148.181534 55.330627,147.029922 
	C59.409431,141.003479 63.835312,135.012848 68.702164,129.185287 
	C72.139336,132.240311 75.135529,135.132248 77.994873,138.329102 
	C76.548073,140.408890 75.238113,142.183777 73.631668,144.111206 
	C72.137932,146.135498 70.940697,148.007278 69.476593,150.070084 
	C67.841835,152.179077 66.473938,154.097046 65.106033,156.014999 
z"/>
<path fill="#309148" opacity="1.000000" stroke="none" 
	d="
M92.268227,110.809784 
	C96.079407,113.717918 99.544144,116.655113 102.797653,120.178444 
	C100.516121,122.059692 98.445808,123.354813 96.074661,124.718376 
	C94.379601,125.785507 92.985390,126.784180 91.290878,127.871307 
	C90.013763,128.351837 89.036949,128.743912 88.017570,128.779327 
	C85.557999,125.036324 83.140991,121.650002 80.723976,118.263687 
	C84.456581,115.788734 88.189178,113.313789 92.268227,110.809784 
z"/>
<path fill="#1E8E48" opacity="1.000000" stroke="none" 
	d="
M80.393150,118.399185 
	C83.140991,121.650002 85.557999,125.036324 87.898453,129.017731 
	C87.537331,130.058868 87.252762,130.504898 86.657921,131.080658 
	C83.609016,133.481644 80.870369,135.752914 78.131721,138.024200 
	C75.135529,135.132248 72.139336,132.240311 69.002487,129.022202 
	C72.595329,125.308929 76.328827,121.921814 80.393150,118.399185 
z"/>
<path fill="#FBFDFC" opacity="1.000000" stroke="none" 
	d="
M818.556152,255.180542 
	C815.429871,260.814972 810.544067,263.520569 804.897949,263.802063 
	C795.281250,264.281525 785.623291,263.934143 775.691528,263.934143 
	C775.691528,252.402084 775.691528,240.991730 775.691528,229.371307 
	C785.281189,229.371307 794.807251,228.520218 804.117737,229.573639 
	C817.600952,231.099197 823.298767,241.728760 818.556152,255.180542 
z"/>
<path fill="#FBFDFC" opacity="1.000000" stroke="none" 
	d="
M783.097778,180.049500 
	C790.544250,180.289093 797.589294,179.941559 804.446533,180.916122 
	C813.111206,182.147568 817.463989,187.998596 817.377319,196.504776 
	C817.288330,205.241669 812.684692,211.229767 803.756836,211.991882 
	C794.573975,212.775787 785.272156,212.165878 775.709534,212.165878 
	C775.709534,201.750275 775.709534,191.194061 775.709534,180.049500 
	C778.084717,180.049500 780.348816,180.049500 783.097778,180.049500 
z"/>
<path fill="#FBFDFC" opacity="1.000000" stroke="none" 
	d="
M371.977661,180.179367 
	C377.281158,180.435364 382.145477,180.328888 386.891998,181.025238 
	C395.864532,182.341583 400.864075,188.600128 401.103455,198.082077 
	C401.369476,208.620758 397.074005,215.646835 387.948395,216.885056 
	C378.488678,218.168610 368.825592,217.952988 359.009949,218.404175 
	C359.009949,205.283600 359.009949,193.035614 359.009949,180.179337 
	C363.269653,180.179337 367.377472,180.179337 371.977661,180.179367 
z"/>
<path fill="#FBFDFC" opacity="1.000000" stroke="none" 
	d="
M462.450714,250.549011 
	C465.109497,248.904602 467.468811,246.535065 469.961365,246.385437 
	C478.193329,245.891251 486.473419,246.199127 494.744598,246.199127 
	C492.708984,261.051178 482.232117,269.480103 469.584930,266.515686 
	C461.128174,264.533447 458.383270,258.697479 462.450714,250.549011 
z"/>
<path fill="#FBFDFC" opacity="1.000000" stroke="none" 
	d="
M708.197998,252.063583 
	C703.387512,263.512878 696.690125,267.980011 686.388672,266.897736 
	C679.393982,266.162872 675.022949,262.165314 675.068054,256.544373 
	C675.112915,250.958542 679.531311,246.441940 686.311951,246.081711 
	C693.922058,245.677429 701.570190,245.988800 709.810364,245.988800 
	C709.276672,248.029755 708.797302,249.862991 708.197998,252.063583 
z"/>
<path fill="#0D734E" opacity="1.000000" stroke="none" 
	d="
M205.995865,288.998779 
	C203.570541,295.553619 205.345840,301.688721 207.886765,307.739563 
	C208.527451,309.265259 209.241165,310.760315 209.957306,312.633484 
	C206.762711,311.376038 203.523178,309.772064 200.303375,308.129395 
	C193.100876,304.454865 185.908234,300.761017 178.356094,297.037506 
	C176.689758,294.568695 175.378906,292.137390 174.394516,289.317383 
	C180.538681,285.779541 186.415588,282.733582 192.151718,279.442291 
	C195.547379,277.493927 198.720642,275.158020 201.995697,273.433228 
	C203.330307,278.912994 204.663086,283.955902 205.995865,288.998779 
z"/>
<path fill="#047A4E" opacity="1.000000" stroke="none" 
	d="
M201.993896,272.996338 
	C198.720642,275.158020 195.547379,277.493927 192.151718,279.442291 
	C186.415588,282.733582 180.538681,285.779541 174.360489,288.966797 
	C164.654205,291.003540 155.389389,293.806702 145.938171,294.758087 
	C137.689880,295.588379 129.231583,294.332275 120.431656,293.999573 
	C114.893173,292.431305 109.789093,290.861420 104.344116,289.142090 
	C102.672928,283.617432 101.342636,278.242218 100.321121,272.574402 
	C102.086876,272.853271 103.543846,273.424744 105.312332,274.155029 
	C108.425362,275.464050 111.226883,276.614227 114.409027,277.859558 
	C117.860130,278.642212 120.930618,279.329681 124.313232,280.177765 
	C125.752197,280.525269 126.879051,280.712128 128.429565,280.953094 
	C142.445969,283.332947 155.491577,281.285767 168.506241,276.081573 
	C171.592911,274.834717 174.316650,273.597321 177.380905,272.226929 
	C181.207947,269.901367 185.030212,268.097382 188.111298,265.435516 
	C194.579285,259.847504 200.657715,253.808655 207.257355,248.003403 
	C211.744751,250.034607 215.870850,252.017303 219.848694,254.302826 
	C217.797134,256.733429 215.893814,258.861237 213.692673,261.136871 
	C209.594543,265.188599 205.794220,269.092468 201.993896,272.996338 
z"/>
<path fill="#309148" opacity="1.000000" stroke="none" 
	d="
M87.010689,262.968109 
	C85.092316,261.192841 83.173943,259.417603 81.119568,256.910431 
	C79.780800,247.022095 78.669701,237.851944 77.302864,228.720062 
	C77.006676,226.741180 75.791985,224.899796 75.037384,222.639465 
	C76.053764,219.870987 77.033112,217.458145 78.313263,214.881348 
	C80.088531,211.827103 81.562996,208.936813 83.337738,205.880066 
	C85.447716,202.494858 87.257423,199.276077 89.325089,195.834808 
	C90.427315,193.532394 91.271568,191.452454 92.380661,189.141144 
	C95.420082,184.529114 98.194664,180.148483 101.015205,176.213501 
	C100.933754,178.401367 100.806335,180.143539 100.468887,182.204895 
	C100.161118,189.349304 100.063385,196.174530 99.596321,203.004517 
	C97.265305,204.838440 94.686996,206.323090 93.441513,208.552383 
	C85.052719,223.567551 86.889900,240.009689 87.222900,256.226929 
	C87.268997,258.471588 87.087059,260.720947 87.010689,262.968109 
z"/>
<path fill="#399847" opacity="1.000000" stroke="none" 
	d="
M87.196945,263.241943 
	C87.087059,260.720947 87.268997,258.471588 87.222900,256.226929 
	C86.889900,240.009689 85.052719,223.567551 93.441513,208.552383 
	C94.686996,206.323090 97.265305,204.838440 99.648911,203.396027 
	C101.986748,208.858139 103.902664,213.933517 105.479309,219.053558 
	C102.757767,223.261368 99.427185,227.159561 98.175735,231.638657 
	C94.783012,243.781708 94.611847,256.357483 95.021431,268.909637 
	C92.475357,267.111664 89.929283,265.313721 87.196945,263.241943 
z"/>
<path fill="#45A145" opacity="1.000000" stroke="none" 
	d="
M95.299011,269.083557 
	C94.611847,256.357483 94.783012,243.781708 98.175735,231.638657 
	C99.427185,227.159561 102.757767,223.261368 105.608398,219.388840 
	C109.052292,223.784103 112.027824,227.888748 114.659210,232.047791 
	C112.875259,234.240463 111.078270,236.221527 110.056190,238.543655 
	C105.074074,249.862991 104.591080,261.877747 105.000816,273.996216 
	C103.543846,273.424744 102.086876,272.853271 100.310936,272.172882 
	C98.520180,271.128448 97.048378,270.192932 95.299011,269.083557 
z"/>
<path fill="#248445" opacity="1.000000" stroke="none" 
	d="
M75.000351,222.995071 
	C75.791985,224.899796 77.006676,226.741180 77.302864,228.720062 
	C78.669701,237.851944 79.780800,247.022095 80.964890,256.621338 
	C76.306046,251.383560 70.969353,246.130371 67.167938,239.935120 
	C58.752186,226.219849 55.431374,210.882996 55.410179,194.477783 
	C56.873592,195.620880 58.381214,197.018127 58.983055,198.733231 
	C62.095776,207.603943 64.936195,216.569855 67.985451,225.463547 
	C68.408981,226.698837 69.464066,227.717575 70.226776,228.836563 
	C71.176910,227.832153 72.253883,226.915817 73.033485,225.792999 
	C73.571243,225.018494 73.697533,223.958313 74.255791,223.017075 
	C74.503868,223.008347 75.000351,222.995071 75.000351,222.995071 
z"/>
<path fill="#309148" opacity="1.000000" stroke="none" 
	d="
M74.007713,223.025803 
	C73.697533,223.958313 73.571243,225.018494 73.033485,225.792999 
	C72.253883,226.915817 71.176910,227.832153 70.226776,228.836563 
	C69.464066,227.717575 68.408981,226.698837 67.985451,225.463547 
	C64.936195,216.569855 62.095776,207.603943 58.983055,198.733231 
	C58.381214,197.018127 56.873592,195.620880 55.435463,194.023071 
	C55.377243,191.912842 55.667374,189.856537 55.935707,187.404083 
	C56.269802,184.932312 56.625702,182.856674 57.357342,180.448227 
	C59.149757,183.020447 60.836727,185.827209 61.934982,188.847992 
	C66.063210,200.202789 69.999512,211.627365 74.007713,223.025803 
z"/>
<path fill="#1B7749" opacity="1.000000" stroke="none" 
	d="
M201.995697,273.433228 
	C205.794220,269.092468 209.594543,265.188599 214.091278,261.140106 
	C216.364456,260.583252 217.981216,260.283783 219.511765,259.741211 
	C234.453903,254.444321 249.367432,249.066147 264.332031,243.833862 
	C266.142548,243.200836 268.206604,243.292999 270.153198,243.049072 
	C270.097412,243.479385 270.041626,243.909714 269.943604,244.662994 
	C267.931976,248.083450 265.962646,251.180969 263.534027,254.633606 
	C256.715881,257.660339 250.357010,260.331940 243.632248,263.041443 
	C236.653931,266.752411 229.761948,270.010925 223.513870,274.224274 
	C218.105576,277.871307 212.947342,282.201080 211.000885,289.000000 
	C209.610703,288.999908 208.220535,288.999786 206.413116,288.999237 
	C204.663086,283.955902 203.330307,278.912994 201.995697,273.433228 
z"/>
<path fill="#1D8246" opacity="1.000000" stroke="none" 
	d="
M211.036530,289.350525 
	C212.947342,282.201080 218.105576,277.871307 223.513870,274.224274 
	C229.761948,270.010925 236.653931,266.752411 243.584839,263.376953 
	C242.624786,264.927338 241.371857,266.207520 240.063278,267.428070 
	C234.479477,272.636230 230.609756,278.700714 232.119736,286.654694 
	C232.735397,289.897827 234.666672,292.891205 235.999390,295.998230 
	C235.103821,300.765930 234.208267,305.533661 233.155426,310.650085 
	C231.421265,309.921753 229.618240,309.066559 228.306427,307.729431 
	C222.484756,301.795441 216.803955,295.723236 211.036530,289.350525 
z"/>
<path fill="#248445" opacity="1.000000" stroke="none" 
	d="
M236.378616,295.956299 
	C234.666672,292.891205 232.735397,289.897827 232.119736,286.654694 
	C230.609756,278.700714 234.479477,272.636230 240.063278,267.428070 
	C241.371857,266.207520 242.624786,264.927338 243.950745,263.339081 
	C250.357010,260.331940 256.715881,257.660339 263.452759,254.978851 
	C263.860657,255.138336 263.890533,255.307693 263.929596,255.734833 
	C262.313324,258.759552 260.687897,261.526520 259.009094,264.645203 
	C256.658752,269.093414 254.361771,273.189911 252.013596,277.643585 
	C249.997253,281.424255 248.032120,284.847809 246.022324,288.628174 
	C244.740372,290.784668 243.503067,292.584290 242.128357,294.691956 
	C240.246597,295.304779 238.502213,295.609558 236.378616,295.956299 
z"/>
<path fill="#D0F09C" opacity="1.000000" stroke="none" 
	d="
M295.568237,136.104340 
	C300.241943,144.356857 303.795807,152.642181 303.312683,162.557556 
	C301.622925,169.769974 299.900116,176.527176 297.669373,183.640564 
	C295.141327,183.347000 292.962036,182.992355 291.125641,182.001938 
	C272.322845,171.860962 253.583252,161.602875 234.810715,151.405685 
	C218.655609,142.630280 202.443100,133.959015 186.374527,125.028397 
	C184.824249,124.166779 184.112656,121.796127 183.011734,120.125977 
	C185.447891,120.014359 187.884064,119.902748 190.710190,119.735657 
	C200.491562,117.849800 209.882980,116.019432 219.637390,114.101379 
	C230.937424,113.412956 241.874435,112.812202 253.251068,112.193069 
	C260.254883,114.299896 266.958008,116.077835 273.349823,118.634117 
	C282.274628,122.203438 289.425476,128.302277 295.568237,136.104340 
z"/>
<path fill="#0F7450" opacity="1.000000" stroke="none" 
	d="
M270.400635,242.818207 
	C268.206604,243.292999 266.142548,243.200836 264.332031,243.833862 
	C249.367432,249.066147 234.453903,254.444321 219.511765,259.741211 
	C217.981216,260.283783 216.364456,260.583252 214.389099,260.992249 
	C215.893814,258.861237 217.797134,256.733429 220.150635,254.155792 
	C227.065765,249.467819 233.530701,245.229691 240.372513,240.949249 
	C248.833298,237.934036 256.917236,234.961151 265.001160,231.988281 
	C269.775085,229.672592 274.549042,227.356888 279.685455,225.001892 
	C276.914642,230.837524 273.781372,236.712418 270.400635,242.818207 
z"/>
<path fill="#C9ED8F" opacity="1.000000" stroke="none" 
	d="
M182.602417,120.031761 
	C184.112656,121.796127 184.824249,124.166779 186.374527,125.028397 
	C202.443100,133.959015 218.655609,142.630280 234.810715,151.405685 
	C253.583252,161.602875 272.322845,171.860962 291.125641,182.001938 
	C292.962036,182.992355 295.141327,183.347000 297.549469,183.995880 
	C297.067780,185.792038 296.198059,187.589066 295.252869,189.710114 
	C291.671814,194.268463 288.166229,198.502747 284.080933,202.697174 
	C274.985016,197.596573 266.576782,192.342438 257.929718,187.516159 
	C240.994751,178.064041 223.947998,168.810822 206.873123,159.613358 
	C205.505005,158.876404 203.563187,159.204514 201.604309,158.871307 
	C197.873581,155.141922 194.721909,151.221588 190.924591,148.082214 
	C179.071686,138.283005 165.097595,135.092133 149.965714,135.495728 
	C148.787109,134.032333 147.834930,132.594482 146.497375,131.838120 
	C139.203079,127.713234 131.742752,123.877617 124.514397,119.643951 
	C122.973175,118.741241 122.156769,116.601013 121.006432,115.030914 
	C126.696205,114.304787 132.385971,113.578659 138.529633,112.767830 
	C148.127197,114.320442 157.261795,116.011101 166.418121,117.574432 
	C171.658173,118.469116 176.933594,119.156715 182.602417,120.031761 
z"/>
<path fill="#C0E87E" opacity="1.000000" stroke="none" 
	d="
M120.610367,114.978188 
	C122.156769,116.601013 122.973175,118.741241 124.514397,119.643951 
	C131.742752,123.877617 139.203079,127.713234 146.497375,131.838120 
	C147.834930,132.594482 148.787109,134.032333 149.571259,135.590179 
	C145.479462,137.005173 141.733582,137.985626 137.622467,138.999664 
	C134.494415,140.327301 131.731598,141.621368 128.639801,142.970367 
	C126.858383,143.982208 125.405945,144.939087 123.659676,145.995361 
	C122.574768,146.726715 121.783684,147.358704 120.723358,148.074738 
	C119.968208,148.438400 119.482315,148.718048 118.644394,148.959366 
	C109.040512,144.854797 102.091209,138.603561 98.822899,128.728592 
	C98.336807,127.259903 97.207314,126.004173 96.375488,124.649918 
	C98.445808,123.354813 100.516121,122.059692 102.849464,120.547241 
	C108.813095,118.528419 114.513695,116.726944 120.610367,114.978188 
z"/>
<path fill="#57AA4B" opacity="1.000000" stroke="none" 
	d="
M89.067123,196.057312 
	C87.257423,199.276077 85.447716,202.494858 82.984192,205.815033 
	C81.327042,204.466431 79.985497,203.145584 79.374466,201.545731 
	C74.909111,189.854340 70.646820,178.085281 66.160896,166.401993 
	C65.531792,164.763504 64.033646,163.458694 62.937759,161.999420 
	C63.616463,160.238159 64.295166,158.476883 65.039948,156.365311 
	C66.473938,154.097046 67.841835,152.179077 69.823189,150.238968 
	C74.290169,160.157135 78.060753,170.130753 82.030197,180.024567 
	C84.202278,185.438461 86.710495,190.717468 89.067123,196.057312 
z"/>
<path fill="#45A145" opacity="1.000000" stroke="none" 
	d="
M62.673988,162.225861 
	C64.033646,163.458694 65.531792,164.763504 66.160896,166.401993 
	C70.646820,178.085281 74.909111,189.854340 79.374466,201.545731 
	C79.985497,203.145584 81.327042,204.466431 82.683914,205.981476 
	C81.562996,208.936813 80.088531,211.827103 78.169830,214.551910 
	C72.886284,201.356628 68.093040,188.309357 63.157036,175.316299 
	C62.431648,173.406860 61.028454,171.754929 59.938869,169.983841 
	C60.762650,167.473328 61.586433,164.962830 62.673988,162.225861 
z"/>
<path fill="#399847" opacity="1.000000" stroke="none" 
	d="
M59.673637,170.232910 
	C61.028454,171.754929 62.431648,173.406860 63.157036,175.316299 
	C68.093040,188.309357 72.886284,201.356628 77.869034,214.715851 
	C77.033112,217.458145 76.053764,219.870987 75.037384,222.639465 
	C75.000351,222.995071 74.503868,223.008347 74.255791,223.017075 
	C69.999512,211.627365 66.063210,200.202789 61.934982,188.847992 
	C60.836727,185.827209 59.149757,183.020447 57.384136,180.053741 
	C57.826263,176.822021 58.617336,173.652008 59.673637,170.232910 
z"/>
<path fill="#C4EB84" opacity="1.000000" stroke="none" 
	d="
M201.887970,159.037674 
	C203.563187,159.204514 205.505005,158.876404 206.873123,159.613358 
	C223.947998,168.810822 240.994751,178.064041 257.929718,187.516159 
	C266.576782,192.342438 274.985016,197.596573 283.783203,202.848999 
	C282.059174,204.979279 280.053131,206.917908 277.885956,209.110992 
	C275.094391,210.919861 272.463959,212.474258 269.142456,213.899261 
	C250.849014,204.219467 233.253357,194.656677 215.628448,185.148071 
	C214.520523,184.550354 213.184158,184.376053 211.820740,183.687363 
	C211.201996,181.886292 210.716568,180.402634 210.208649,178.520782 
	C207.420090,171.760956 204.654037,165.399307 201.887970,159.037674 
z"/>
<path fill="#BEE879" opacity="1.000000" stroke="none" 
	d="
M211.954071,184.004761 
	C213.184158,184.376053 214.520523,184.550354 215.628448,185.148071 
	C233.253357,194.656677 250.849014,204.219467 268.777954,213.914932 
	C263.884064,216.836655 258.663544,219.613327 252.834717,222.669067 
	C250.818176,223.278610 249.410004,223.609085 247.947174,223.602783 
	C246.655548,222.208511 245.559616,220.888992 244.159164,220.135132 
	C233.353638,214.318619 222.489136,208.611664 211.679825,202.436401 
	C211.790802,199.668915 211.864868,197.335754 212.000153,194.547607 
	C212.025604,190.729996 211.989838,187.367371 211.954071,184.004761 
z"/>
<path fill="#1E8E48" opacity="1.000000" stroke="none" 
	d="
M248.001816,223.939545 
	C249.410004,223.609085 250.818176,223.278610 252.590515,222.918732 
	C255.291504,224.585220 257.626282,226.283951 259.965942,227.975952 
	C261.540253,229.114456 263.121429,230.243469 264.850342,231.682510 
	C256.917236,234.961151 248.833298,237.934036 240.054047,240.810425 
	C235.198502,238.123627 231.038269,235.533340 227.098694,232.671600 
	C234.213501,229.579941 241.107666,226.759750 248.001816,223.939545 
z"/>
<path fill="#88C961" opacity="1.000000" stroke="none" 
	d="
M100.969238,175.767838 
	C98.194664,180.148483 95.420082,184.529114 92.233398,188.774597 
	C91.272804,187.810211 90.552925,187.047501 90.201454,186.141815 
	C84.748871,172.091690 79.344032,158.023041 73.928154,143.958679 
	C75.238113,142.183777 76.548073,140.408890 77.994873,138.329102 
	C80.870369,135.752914 83.609016,133.481644 86.806915,131.404343 
	C91.644333,141.992081 95.941574,152.421417 100.480392,162.744522 
	C101.235840,164.462723 103.043335,165.718353 104.332870,167.520294 
	C104.001984,168.914688 103.702911,169.976532 103.199799,171.314529 
	C102.320251,172.983063 101.644745,174.375458 100.969238,175.767838 
z"/>
<path fill="#67B645" opacity="1.000000" stroke="none" 
	d="
M73.631668,144.111206 
	C79.344032,158.023041 84.748871,172.091690 90.201454,186.141815 
	C90.552925,187.047501 91.272804,187.810211 91.968567,189.005981 
	C91.271568,191.452454 90.427315,193.532394 89.325096,195.834808 
	C86.710495,190.717468 84.202278,185.438461 82.030197,180.024567 
	C78.060753,170.130753 74.290169,160.157135 70.090042,150.047928 
	C70.940697,148.007278 72.137932,146.135498 73.631668,144.111206 
z"/>
<path fill="#B9E56F" opacity="1.000000" stroke="none" 
	d="
M96.074654,124.718369 
	C97.207314,126.004173 98.336807,127.259903 98.822899,128.728592 
	C102.091209,138.603561 109.040512,144.854797 118.541321,149.221161 
	C118.470360,149.980133 118.150459,150.439011 117.545570,151.047272 
	C115.780617,152.775330 114.300652,154.353989 112.554619,156.096161 
	C111.441017,157.456421 110.593475,158.653152 109.492920,160.006149 
	C108.731377,160.769913 108.222839,161.377411 107.444748,161.784714 
	C105.097374,157.145584 102.995995,152.717529 100.947220,148.265244 
	C97.809502,141.446533 94.708023,134.611160 91.591171,127.782852 
	C92.985390,126.784180 94.379601,125.785507 96.074654,124.718369 
z"/>
<path fill="#B1E262" opacity="1.000000" stroke="none" 
	d="
M91.290878,127.871307 
	C94.708023,134.611160 97.809502,141.446533 100.947220,148.265244 
	C102.995995,152.717529 105.097374,157.145584 107.506271,161.979492 
	C107.837349,162.374496 107.909492,162.776489 107.638275,162.954788 
	C106.366264,164.484650 105.365471,165.836197 104.364685,167.187744 
	C103.043335,165.718353 101.235840,164.462723 100.480392,162.744522 
	C95.941574,152.421417 91.644333,141.992081 87.117180,131.274628 
	C87.252762,130.504898 87.537331,130.058868 87.941017,129.374405 
	C89.036949,128.743912 90.013763,128.351837 91.290878,127.871307 
z"/>
<path fill="#67B645" opacity="1.000000" stroke="none" 
	d="
M177.040405,272.359894 
	C174.316650,273.597321 171.592911,274.834717 168.210907,275.884888 
	C166.198517,274.543945 164.971756,273.177246 163.466187,272.276672 
	C159.072495,269.648560 154.476089,267.354279 150.124725,264.661560 
	C140.453110,258.676575 137.039093,259.429779 131.740463,269.762115 
	C129.973923,273.206848 129.221786,277.171844 128.005920,280.898987 
	C126.879051,280.712128 125.752197,280.525269 124.312523,279.719238 
	C125.114410,272.192291 125.695145,265.139008 127.524467,258.425934 
	C128.825912,253.649994 131.809097,249.332321 134.380737,244.867264 
	C135.809296,245.214447 136.898849,245.504471 138.360565,245.930481 
	C142.159698,246.721970 145.586670,247.377472 149.216064,248.133667 
	C149.702911,248.369965 149.911377,248.580673 150.072174,249.221649 
	C160.034073,255.037766 169.967697,260.498718 179.791901,266.284851 
	C178.801788,268.526672 177.921097,270.443268 177.040405,272.359894 
z"/>
<path fill="#B1E262" opacity="1.000000" stroke="none" 
	d="
M177.380905,272.226929 
	C177.921097,270.443268 178.801788,268.526672 179.883972,265.944580 
	C182.105759,261.319611 184.126038,257.360107 186.421997,253.160217 
	C188.519577,249.818863 190.494461,246.796021 192.127518,243.598602 
	C194.569443,238.817444 196.770859,233.913437 199.072662,229.042389 
	C199.070770,229.023071 199.046005,229.051315 199.350449,228.986755 
	C199.795044,228.542358 199.935211,228.162521 200.234039,227.500702 
	C201.613220,225.178726 202.833710,223.138733 204.267044,221.057770 
	C204.479874,221.016800 204.907379,220.945129 205.230423,221.089508 
	C208.404785,222.843811 211.309143,224.367722 214.094360,226.084869 
	C217.805695,228.373016 221.424377,230.811493 224.893677,233.460449 
	C218.768356,238.475296 212.832214,243.215088 206.896057,247.954895 
	C200.657715,253.808655 194.579285,259.847504 188.111298,265.435516 
	C185.030212,268.097382 181.207947,269.901367 177.380905,272.226929 
z"/>
<path fill="#6AC039" opacity="1.000000" stroke="none" 
	d="
M128.429565,280.953125 
	C129.221786,277.171844 129.973923,273.206848 131.740463,269.762115 
	C137.039093,259.429779 140.453110,258.676575 150.124725,264.661560 
	C154.476089,267.354279 159.072495,269.648560 163.466187,272.276672 
	C164.971756,273.177246 166.198517,274.543945 167.847992,275.894348 
	C155.491577,281.285767 142.445969,283.332947 128.429565,280.953125 
z"/>
<path fill="#4FAE42" opacity="1.000000" stroke="none" 
	d="
M105.312332,274.155029 
	C104.591080,261.877747 105.074074,249.862991 110.056190,238.543655 
	C111.078270,236.221527 112.875259,234.240463 114.876251,232.076172 
	C115.437431,232.050156 115.872871,232.094833 115.953018,232.429840 
	C119.364914,235.166916 122.696655,237.568970 126.072327,240.203201 
	C126.116249,240.435379 126.231873,240.893616 125.867599,240.949081 
	C123.663254,243.195450 121.317200,245.133392 120.072975,247.622192 
	C115.346588,257.076263 113.792015,267.263855 114.028404,277.764404 
	C111.226883,276.614227 108.425362,275.464050 105.312332,274.155029 
z"/>
<path fill="#59B43F" opacity="1.000000" stroke="none" 
	d="
M114.409027,277.859558 
	C113.792015,267.263855 115.346588,257.076263 120.072975,247.622192 
	C121.317200,245.133392 123.663254,243.195450 126.197601,241.016953 
	C129.275146,242.289612 131.658432,243.549866 134.041718,244.810120 
	C131.809097,249.332321 128.825912,253.649994 127.524467,258.425934 
	C125.695145,265.139008 125.114410,272.192291 124.000412,279.558594 
	C120.930618,279.329681 117.860130,278.642212 114.409027,277.859558 
z"/>
<path fill="#11824A" opacity="1.000000" stroke="none" 
	d="
M207.257355,248.003418 
	C212.832214,243.215088 218.768356,238.475296 225.193878,233.423447 
	C226.081497,233.055283 226.479782,232.999176 226.878052,232.943069 
	C231.038269,235.533340 235.198502,238.123627 239.677185,240.852753 
	C233.530701,245.229691 227.065765,249.467819 220.298889,253.852966 
	C215.870850,252.017303 211.744751,250.034607 207.257355,248.003418 
z"/>
<path fill="#582C17" opacity="1.000000" stroke="none" 
	d="
M126.028397,239.971024 
	C122.696655,237.568970 119.364914,235.166916 116.256546,232.168671 
	C116.458000,229.649734 116.872795,227.596771 116.344559,225.824982 
	C112.388252,212.555023 108.313583,199.318756 104.074013,186.136887 
	C103.554901,184.522812 101.839783,183.293396 100.678925,181.885727 
	C100.806335,180.143539 100.933754,178.401367 101.015205,176.213501 
	C101.644745,174.375458 102.320251,172.983063 103.526138,171.372406 
	C104.725616,172.021790 105.677292,172.790955 106.019539,173.772583 
	C109.009262,182.347733 111.924629,190.949356 114.794647,199.565567 
	C118.713005,211.329025 122.639694,223.090866 126.372414,234.913528 
	C126.846039,236.413620 126.171181,238.276321 126.028397,239.971024 
z"/>
<path fill="#46250E" opacity="1.000000" stroke="none" 
	d="
M100.468887,182.204895 
	C101.839783,183.293396 103.554901,184.522812 104.074013,186.136887 
	C108.313583,199.318756 112.388252,212.555023 116.344559,225.824982 
	C116.872795,227.596771 116.458000,229.649734 116.176392,231.833649 
	C115.872871,232.094833 115.437431,232.050156 115.220390,232.021774 
	C112.027824,227.888748 109.052292,223.784103 105.947670,219.344177 
	C103.902664,213.933517 101.986748,208.858139 100.018242,203.391266 
	C100.063385,196.174530 100.161118,189.349304 100.468887,182.204895 
z"/>
<path fill="#C27058" opacity="1.000000" stroke="none" 
	d="
M201.604309,158.871307 
	C204.654037,165.399307 207.420090,171.760956 209.815155,178.542877 
	C208.796387,178.857330 208.058472,178.917465 207.513885,178.621658 
	C185.821457,166.839340 164.128998,155.056686 142.502487,143.154236 
	C140.757721,142.193970 139.481598,140.382172 137.987701,138.966080 
	C141.733582,137.985626 145.479462,137.005173 149.619812,135.930283 
	C165.097595,135.092133 179.071686,138.283005 190.924591,148.082214 
	C194.721909,151.221588 197.873581,155.141922 201.604309,158.871307 
z"/>
<path fill="#B0604B" opacity="1.000000" stroke="none" 
	d="
M211.938934,195.002609 
	C211.864868,197.335754 211.790802,199.668915 211.483582,202.717590 
	C210.184341,205.990799 209.118271,208.548477 207.902878,210.790192 
	C206.759033,209.615204 205.880035,208.544586 204.752594,207.928986 
	C188.860870,199.251846 173.021133,190.472931 156.986237,182.066925 
	C147.159592,176.915482 137.944870,171.436752 132.845200,160.860123 
	C130.334732,155.653442 126.945229,150.870621 123.953506,145.895981 
	C125.405945,144.939087 126.858383,143.982208 128.776733,143.293671 
	C133.048065,152.024048 140.017914,156.927124 147.988663,161.091644 
	C161.322433,168.058243 174.341370,175.624649 187.602997,182.733047 
	C195.607452,187.023529 203.819946,190.925858 211.938934,195.002609 
z"/>
<path fill="#B76650" opacity="1.000000" stroke="none" 
	d="
M212.000168,194.547607 
	C203.819946,190.925858 195.607452,187.023529 187.602997,182.733047 
	C174.341370,175.624649 161.322433,168.058243 147.988663,161.091644 
	C140.017914,156.927124 133.048065,152.024048 129.105713,143.238724 
	C131.731598,141.621368 134.494415,140.327301 137.622467,138.999664 
	C139.481598,140.382172 140.757721,142.193970 142.502487,143.154236 
	C164.128998,155.056686 185.821457,166.839340 207.513885,178.621658 
	C208.058472,178.917465 208.796387,178.857330 209.837646,178.941071 
	C210.716568,180.402634 211.201996,181.886292 211.820740,183.687347 
	C211.989838,187.367371 212.025604,190.729996 212.000168,194.547607 
z"/>
<path fill="#9D513E" opacity="1.000000" stroke="none" 
	d="
M204.054214,221.098755 
	C202.833710,223.138733 201.613220,225.178726 200.001877,227.662354 
	C199.422699,228.421112 199.234344,228.736206 199.045990,229.051315 
	C199.046005,229.051315 199.070770,229.023071 198.852966,229.049347 
	C198.635178,229.075623 198.195953,229.088425 197.824097,229.036407 
	C186.152039,223.004257 174.782379,217.150345 163.583740,210.985703 
	C158.673569,208.282730 153.075226,205.820496 149.610809,201.712753 
	C142.602570,193.403137 136.454407,184.284485 130.678787,175.044861 
	C125.857742,167.332367 122.073799,158.971558 117.830559,150.897873 
	C118.150459,150.439011 118.470360,149.980133 118.893341,149.259491 
	C119.482315,148.718048 119.968208,148.438400 120.999329,148.278015 
	C126.646187,157.483627 131.444031,166.759720 136.958649,175.588074 
	C140.501740,181.260239 144.167679,187.010635 150.573410,190.343292 
	C163.811142,197.230301 176.960342,204.298019 189.982025,211.584381 
	C194.905746,214.339462 199.376816,217.903473 204.054214,221.098755 
z"/>
<path fill="#A75844" opacity="1.000000" stroke="none" 
	d="
M204.267044,221.057770 
	C199.376816,217.903473 194.905746,214.339462 189.982025,211.584381 
	C176.960342,204.298019 163.811142,197.230301 150.573410,190.343292 
	C144.167679,187.010635 140.501740,181.260239 136.958649,175.588074 
	C131.444031,166.759720 126.646187,157.483627 121.268585,148.194000 
	C121.783684,147.358704 122.574768,146.726715 123.659668,145.995361 
	C126.945229,150.870621 130.334732,155.653442 132.845200,160.860123 
	C137.944870,171.436752 147.159592,176.915482 156.986237,182.066925 
	C173.021133,190.472931 188.860870,199.251846 204.752594,207.928986 
	C205.880035,208.544586 206.759033,209.615204 207.896088,211.173492 
	C206.994888,214.896881 205.951141,217.921005 204.907379,220.945129 
	C204.907379,220.945129 204.479874,221.016800 204.267044,221.057770 
z"/>
<path fill="#B9E56F" opacity="1.000000" stroke="none" 
	d="
M205.230438,221.089508 
	C205.951141,217.921005 206.994888,214.896881 208.045410,211.489456 
	C209.118271,208.548477 210.184341,205.990799 211.446686,203.151917 
	C222.489136,208.611664 233.353638,214.318619 244.159164,220.135132 
	C245.559616,220.888992 246.655548,222.208511 247.947174,223.602783 
	C241.107666,226.759750 234.213501,229.579941 227.098694,232.671600 
	C226.479782,232.999176 226.081497,233.055283 225.383041,233.148392 
	C221.424377,230.811493 217.805695,228.373016 214.094360,226.084869 
	C211.309143,224.367722 208.404785,222.843811 205.230438,221.089508 
z"/>
<path fill="#6B3420" opacity="1.000000" stroke="none" 
	d="
M126.072327,240.203201 
	C126.171181,238.276321 126.846039,236.413620 126.372414,234.913528 
	C122.639694,223.090866 118.713005,211.329025 114.794647,199.565567 
	C111.924629,190.949356 109.009262,182.347733 106.019539,173.772583 
	C105.677292,172.790955 104.725616,172.021790 103.730171,171.096252 
	C103.702911,169.976532 104.001984,168.914688 104.332870,167.520294 
	C105.365471,165.836197 106.366264,164.484650 107.693916,163.334961 
	C109.003334,165.815094 110.041809,168.071091 110.959541,170.375198 
	C117.807999,187.569214 124.886398,204.678177 131.348358,222.016663 
	C134.212006,229.700256 135.813812,237.854126 137.988403,245.794495 
	C136.898849,245.504471 135.809296,245.214447 134.380737,244.867264 
	C131.658432,243.549866 129.275146,242.289612 126.561874,240.961487 
	C126.231873,240.893616 126.116249,240.435379 126.072327,240.203201 
z"/>
<path fill="#924836" opacity="1.000000" stroke="none" 
	d="
M117.545570,151.047272 
	C122.073799,158.971558 125.857742,167.332367 130.678787,175.044861 
	C136.454407,184.284485 142.602570,193.403137 149.610809,201.712753 
	C153.075226,205.820496 158.673569,208.282730 163.583740,210.985703 
	C174.782379,217.150345 186.152039,223.004257 197.649292,229.326553 
	C192.921448,233.531158 187.996552,237.393616 182.934906,240.925568 
	C181.232468,239.411469 179.746017,238.101013 178.087769,237.065689 
	C169.809647,231.897186 161.018936,227.413055 153.301270,221.519226 
	C144.317108,214.658188 138.988373,204.590057 133.916336,194.669479 
	C128.100403,183.293839 122.760384,171.675491 117.020744,160.259567 
	C116.159424,158.546417 114.246933,157.361771 112.820694,155.932648 
	C114.300652,154.353989 115.780617,152.775330 117.545570,151.047272 
z"/>
<path fill="#894331" opacity="1.000000" stroke="none" 
	d="
M112.554626,156.096161 
	C114.246933,157.361771 116.159424,158.546417 117.020744,160.259567 
	C122.760384,171.675491 128.100403,183.293839 133.916336,194.669479 
	C138.988373,204.590057 144.317108,214.658188 153.301270,221.519226 
	C161.018936,227.413055 169.809647,231.897186 178.087769,237.065689 
	C179.746017,238.101013 181.232468,239.411469 182.711731,241.167282 
	C180.036804,243.131470 177.448273,244.523438 174.463684,245.926498 
	C166.059723,246.913895 158.051804,247.890198 150.043900,248.866501 
	C149.911377,248.580673 149.702911,248.369965 149.211426,247.720062 
	C148.871384,246.224594 148.786987,245.233978 148.597992,244.263763 
	C146.593628,233.974411 140.731857,225.427887 136.290726,216.189331 
	C128.034256,199.013947 120.811256,181.342926 113.048088,163.927246 
	C112.360222,162.384094 110.865768,161.200500 109.745934,159.849899 
	C110.593475,158.653152 111.441017,157.456421 112.554626,156.096161 
z"/>
<path fill="#7A3B28" opacity="1.000000" stroke="none" 
	d="
M109.492920,160.006149 
	C110.865768,161.200500 112.360222,162.384094 113.048088,163.927246 
	C120.811256,181.342926 128.034256,199.013947 136.290726,216.189331 
	C140.731857,225.427887 146.593628,233.974411 148.597992,244.263763 
	C148.786987,245.233978 148.871384,246.224594 149.008987,247.619354 
	C145.586670,247.377472 142.159698,246.721970 138.360565,245.930496 
	C135.813812,237.854126 134.212006,229.700256 131.348358,222.016663 
	C124.886398,204.678177 117.807999,187.569214 110.959541,170.375198 
	C110.041809,168.071091 109.003334,165.815094 107.965134,163.156647 
	C107.909492,162.776489 107.837349,162.374496 107.775826,162.179718 
	C108.222839,161.377411 108.731377,160.769913 109.492920,160.006149 
z"/>
<path fill="#57AA4B" opacity="1.000000" stroke="none" 
	d="
M150.072174,249.221649 
	C158.051804,247.890198 166.059723,246.913895 174.783234,246.083160 
	C179.047989,248.619370 182.597153,251.009995 186.146332,253.400604 
	C184.126038,257.360107 182.105759,261.319611 179.993393,265.619385 
	C169.967697,260.498718 160.034073,255.037766 150.072174,249.221649 
z"/>
<path fill="#45A145" opacity="1.000000" stroke="none" 
	d="
M186.421997,253.160217 
	C182.597153,251.009995 179.047989,248.619370 175.179291,246.072083 
	C177.448273,244.523438 180.036804,243.131470 182.848495,241.497787 
	C187.996552,237.393616 192.921448,233.531158 198.021149,229.378571 
	C198.195953,229.088425 198.635178,229.075623 198.854874,229.068665 
	C196.770859,233.913437 194.569443,238.817444 192.127518,243.598602 
	C190.494461,246.796021 188.519577,249.818863 186.421997,253.160217 
z"/>
<path fill="#45A145" opacity="1.000000" stroke="none" 
	d="
M199.350433,228.986755 
	C199.234344,228.736206 199.422699,228.421112 199.843201,227.944351 
	C199.935211,228.162521 199.795044,228.542358 199.350433,228.986755 
z"/>
</svg>